<?xml version="1.0" standalone="no"?>
<!DOCTYPE svg PUBLIC "-//W3C//DTD SVG 20010904//EN"
 "http://www.w3.org/TR/2001/REC-SVG-20010904/DTD/svg10.dtd">
<svg version="1.0" xmlns="http://www.w3.org/2000/svg"
 width="250.000000pt" height="250.000000pt" viewBox="0 0 250.000000 250.000000"
 preserveAspectRatio="xMidYMid meet">
<metadata>
Created by potrace 1.14, written by Peter Selinger 2001-2017
</metadata>
<g transform="translate(0.000000,250.000000) scale(0.100000,-0.100000)"
fill="#000000" stroke="none">
<path d="M440 2301 c-77 -23 -129 -75 -149 -146 -7 -28 -11 -311 -10 -910 0
-924 -1 -910 47 -974 10 -14 39 -37 63 -51 l44 -25 798 -3 c523 -2 811 1 836
8 57 15 103 50 131 100 l25 45 3 896 2 895 -27 55 c-30 57 -71 92 -132 109
-42 12 -1592 12 -1631 1z"/>
</g>
</svg>
